<svg width="755" height="1394" viewBox="0 0 755 1394" fill="none" xmlns="http://www.w3.org/2000/svg">
<path d="M1.41497 221C1.41497 212.716 8.1307 206 16.415 206H130.602C135.498 206 140.087 208.39 142.893 212.402L334.707 486.628C336.469 489.148 337.415 492.15 337.415 495.225V648C337.415 656.284 330.699 663 322.415 663H227.204C222.602 663 218.255 660.887 215.411 657.269L4.62166 389.08C2.54426 386.437 1.41497 383.173 1.41497 379.811V221Z" fill="black"/>
<path d="M414.415 648C414.415 656.284 421.131 663 429.415 663H543.602C548.498 663 553.087 660.61 555.893 656.598L747.706 382.372C749.469 379.852 750.415 376.85 750.415 373.775V221C750.415 212.716 743.699 206 735.415 206H640.204C635.602 206 631.255 208.113 628.411 211.731L417.622 479.92C415.544 482.563 414.415 485.827 414.415 489.189V648Z" fill="black"/>
<path d="M414.415 746C414.415 737.716 421.131 731 429.415 731H543.602C548.498 731 553.087 733.39 555.893 737.402L747.706 1011.63C749.469 1014.15 750.415 1017.15 750.415 1020.23V1173C750.415 1181.28 743.699 1188 735.415 1188H640.204C635.602 1188 631.255 1185.89 628.411 1182.27L417.622 914.08C415.544 911.437 414.415 908.173 414.415 904.811V746Z" fill="black"/>
<path d="M337.415 746C337.415 737.716 330.699 731 322.415 731H208.228C203.332 731 198.743 733.39 195.937 737.402L4.12345 1011.63C2.3605 1014.15 1.41497 1017.15 1.41497 1020.23V1173C1.41497 1181.28 8.1307 1188 16.415 1188H111.626C116.228 1188 120.575 1185.89 123.419 1182.27L334.208 914.08C336.286 911.437 337.415 908.173 337.415 904.811V746Z" fill="black"/>
<path d="M1.68646 1257.87C-3.45836 1247.89 3.78912 1236 15.02 1236H133.415C141.699 1236 148.415 1242.72 148.415 1251V1379C148.415 1387.28 141.699 1394 133.415 1394H80.9849C75.3692 1394 70.2239 1390.86 67.6514 1385.87L1.68646 1257.87Z" fill="black"/>
<path d="M753.201 1257.45C757.941 1247.5 750.683 1236 739.658 1236H632.415C624.131 1236 617.415 1242.72 617.415 1251V1379C617.415 1387.28 624.131 1394 632.415 1394H678.703C684.488 1394 689.758 1390.67 692.246 1385.45L753.201 1257.45Z" fill="black"/>
<path d="M183.415 1251C183.415 1242.72 190.131 1236 198.415 1236H568.415C576.699 1236 583.415 1242.72 583.415 1251V1379C583.415 1387.28 576.699 1394 568.415 1394H198.415C190.131 1394 183.415 1387.28 183.415 1379V1251Z" fill="black"/>
<path d="M745.603 134.049C752.963 143.945 745.899 158 733.567 158H550.415C542.131 158 535.415 151.284 535.415 143V15C535.415 6.71573 542.131 0 550.415 0H638.377C643.12 0 647.583 2.24305 650.413 6.04883L745.603 134.049Z" fill="black"/>
<path d="M8.22674 134.049C0.867313 143.945 7.93061 158 20.2632 158H203.415C211.699 158 218.415 151.284 218.415 143V15C218.415 6.71573 211.699 0 203.415 0H115.453C110.71 0 106.247 2.24305 103.417 6.04883L8.22674 134.049Z" fill="black"/>
<path d="M492.415 143C492.415 151.284 485.699 158 477.415 158H277.415C269.131 158 262.415 151.284 262.415 143V15C262.415 6.71573 269.131 0 277.415 0H477.415C485.699 0 492.415 6.71573 492.415 15V143Z" fill="black"/>
</svg>
